{"title":"Fugly (2014) DvDScr Rip XviD 1CD {VikkyMaxx} [SilverRG]","uid":10368580,"size":735506406,"categoryP":"video","categoryS":"movies","magnet":"?xt=urn:btih:e55d506f89a76c512c88f932781993082bd0dbf5&amp;dn=Fugly+%282014%29+DvDScr+Rip+XviD+1CD+%7BVikkyMaxx%7D+%5BSilverRG%5D&amp;tr=udp%3A%2F%2Ftracker.openbittorrent.com%3A80&amp;tr=udp%3A%2F%2Fopen.demonii.com%3A1337&amp;tr=udp%3A%2F%2Ftracker.coppersurfer.tk%3A6969&amp;tr=udp%3A%2F%2Fexodus.desync.com%3A6969","seeders":1,"leechers":0,"uploader":"shailendramaxx","files":18,"time":1402899380,"description":"VikkyMaxx SilverRG Presents \n\n\nGeneral:-\n \nComplete name :Fugly 2014 DvDScr Rip XviD 1CD {VikkyMaxx} [SilverRG]\nFormat : AVI \nFormat/Info : Audio Video Interleave \nFile size : 691 MiB \nDuration : 2h 13mn \nOverall bit rate : 725 Kbps \n\nVideo:-\n \nID : 0 \nFormat : MPEG-4 Visual \nFormat profile : Advanced Simple@L5 \nFormat settings, BVOP : 2 \nFormat settings, QPel : No \nFormat settings, GMC : No warppoints \nFormat settings, Matrix : Default (H.263) \nCodec ID : XVID \nCodec ID/Hint : XviD \nDuration : 2h 13mn \nBit rate : 638 Kbps \nWidth : 640 pixels \nHeight : 272 pixels \nDisplay aspect ratio : 2.35:1 \nFrame rate : 29.970 fps \nColor space : YUV \nChroma subsampling : 4:2:0 \nBit depth : 8 bits \nScan type : Progressive \nCompression mode : Lossy \nBits/(Pixel*Frame) : 0.122 \nStream size : 608 MiB (88%) \nWriting library : XviD 1.2.1 (UTC 2008-12-04) \n\nAudio:-\n \nID : 1 \nFormat : MPEG Audio \nFormat version : Version 1 \nFormat profile : Layer 3 \nMode : Joint stereo \nMode extension : MS Stereo \nCodec ID : 55 \nCodec ID/Hint : MP3 \nDuration : 2h 13mn \nBit rate mode : Constant \nBit rate : 80.0 Kbps \nChannel(s) : 2 channels \nSampling rate : 32.0 KHz \nCompression mode : Lossy \nStream size : 76.2 MiB (11%) \nAlignment : Aligned on interleaves \nInterleave, duration : 133 ms (4.00 video frames) \nInterleave, preload duration : 216 ms \nTitle : fugly all T80 2_0ch 192Kbps DELAY 0ms \nWriting library : LAME3.99r \nEncoding settings : -m j -V 4 -q 2 -lowpass 13.5 -b 80 \nLanguage : Hindi \n\n\nSCREENS:-\n\n &lt;a href=&quot;\nhttp://i.imgur.com/biOBeKH.png&quot; rel=&quot;nofollow&quot; target=&quot;_NEW&quot;&gt;\nhttp://i.imgur.com/biOBeKH.png&lt;/a&gt;\n &lt;a href=&quot;\nhttp://i.imgur.com/ejgiz57.png&quot; rel=&quot;nofollow&quot; target=&quot;_NEW&quot;&gt;\nhttp://i.imgur.com/ejgiz57.png&lt;/a&gt;\n &lt;a href=&quot;\nhttp://i.imgur.com/TjZhel6.png&quot; rel=&quot;nofollow&quot; target=&quot;_NEW&quot;&gt;\nhttp://i.imgur.com/TjZhel6.png&lt;/a&gt;\n &lt;a href=&quot;\nhttp://i.imgur.com/aG80dx4.png&quot; rel=&quot;nofollow&quot; target=&quot;_NEW&quot;&gt;\nhttp://i.imgur.com/aG80dx4.png&lt;/a&gt;\n &lt;a href=&quot;\nhttp://i.imgur.com/JfcQgGz.png&quot; rel=&quot;nofollow&quot; target=&quot;_NEW&quot;&gt;\nhttp://i.imgur.com/JfcQgGz.png&lt;/a&gt;\n &lt;a href=&quot;\nhttp://i.imgur.com/YZ04M86.png&quot; rel=&quot;nofollow&quot; target=&quot;_NEW&quot;&gt;\nhttp://i.imgur.com/YZ04M86.png&lt;/a&gt;\n &lt;a href=&quot;\nhttp://i.imgur.com/3fvGYXg.png&quot; rel=&quot;nofollow&quot; target=&quot;_NEW&quot;&gt;\nhttp://i.imgur.com/3fvGYXg.png&lt;/a&gt;\n &lt;a href=&quot;\nhttp://i.imgur.com/lrmdnjk.png&quot; rel=&quot;nofollow&quot; target=&quot;_NEW&quot;&gt;\nhttp://i.imgur.com/lrmdnjk.png&lt;/a&gt;\n &lt;a href=&quot;\nhttp://i.imgur.com/HV3yL5M.png&quot; rel=&quot;nofollow&quot; target=&quot;_NEW&quot;&gt;\nhttp://i.imgur.com/HV3yL5M.png&lt;/a&gt;\n &lt;a href=&quot;\nhttp://i.imgur.com/ZvKtHyd.png&quot; rel=&quot;nofollow&quot; target=&quot;_NEW&quot;&gt;\nhttp://i.imgur.com/ZvKtHyd.png&lt;/a&gt;\n &lt;a href=&quot;\nhttp://i.imgur.com/GLgtvVI.png&quot; rel=&quot;nofollow&quot; target=&quot;_NEW&quot;&gt;\nhttp://i.imgur.com/GLgtvVI.png&lt;/a&gt;\n\n\n\n\nSAMPLE AND SCREENSHOTS INCLUDED\n\n    \n             \n             ********** PLEASE SEED AS LONG AS YOU CAN AFTER DOWNLOAD **********\n       \n                    ***** THANK YOU REGARDS - VIKKYMAXX (SilverRG) *****\n                                        ","torrent":{"xt":"urn:btih:e55d506f89a76c512c88f932781993082bd0dbf5","amp;dn":"Fugly+%282014%29+DvDScr+Rip+XviD+1CD+%7BVikkyMaxx%7D+%5BSilverRG%5D","amp;tr":["udp%3A%2F%2Ftracker.openbittorrent.com%3A80","udp%3A%2F%2Fopen.demonii.com%3A1337","udp%3A%2F%2Ftracker.coppersurfer.tk%3A6969","udp%3A%2F%2Fexodus.desync.com%3A6969"],"infoHash":"e55d506f89a76c512c88f932781993082bd0dbf5","infoHashBuffer":{"type":"Buffer","data":[229,93,80,111,137,167,108,81,44,136,249,50,120,25,147,8,43,208,219,245]},"announce":[],"urlList":[]}}